<?xml version="1.0" standalone="no"?>
<!DOCTYPE svg PUBLIC "-//W3C//DTD SVG 20010904//EN"
 "http://www.w3.org/TR/2001/REC-SVG-20010904/DTD/svg10.dtd">
<svg version="1.0" xmlns="http://www.w3.org/2000/svg"
 width="229.000000pt" height="229.000000pt" viewBox="0 0 229.000000 229.000000"
 preserveAspectRatio="xMidYMid meet">
<metadata>
Created by potrace 1.14, written by Peter Selinger 2001-2017
</metadata>
<g transform="translate(0.000000,229.000000) scale(0.100000,-0.100000)"
fill="#000000" stroke="none">
<path d="M1050 1616 c-155 -34 -250 -137 -250 -268 0 -105 43 -170 142 -218
l58 -27 160 40 c96 24 156 43 148 48 -7 4 -53 18 -103 30 -155 38 -205 70
-205 134 0 66 58 105 157 105 73 0 120 -24 146 -73 l19 -37 89 0 c86 0 89 1
89 23 0 76 -66 170 -149 212 -85 43 -197 54 -301 31z"/>
<path d="M1398 988 c-69 -18 -78 -23 -78 -44 0 -111 -182 -165 -296 -88 l-37
25 -92 -22 -92 -22 19 -34 c28 -46 83 -89 148 -115 75 -30 278 -33 357 -5 56
20 135 83 158 127 37 72 41 201 6 199 -9 -1 -51 -10 -93 -21z"/>
</g>
</svg>
